<?xml version="1.0" encoding="UTF-8"?>
<svg id="Layer_2" data-name="Layer 2" xmlns="http://www.w3.org/2000/svg" viewBox="0 0 132.93 196.07">
  <g id="art_1" data-name="art 1">
    <g>
      <path d="m.24.02c1.34,0,2.35,0,3.37,0C22.03.02,40.46.06,58.89,0c9.76-.03,19.02,2.17,28.14,5.51,11.21,4.11,20.25,11.2,27.94,20.02,10.03,11.51,16.41,24.84,17.7,40.23,1.23,14.62-1.89,28.19-10.66,40.22-5.81,7.98-12.78,14.7-21.35,19.68-.22.13-.48.19-1.02.39,1.01-3.25,2.19-6.18,3.01-9.22,4.45-16.55,2.35-32.35-5.06-47.64-4.01-8.28-9.67-15.24-16.73-21.04-10.17-8.38-21.95-13.23-34.86-15.51-5.64-1-10.91-3.18-16.25-5.16-4.64-1.72-8.97-3.94-12.73-7.07C10.26,14.78,4.42,8.31.24.02Z"/>
      <path d="m0,75.95c13.58-.8,25.43,2.62,36.3,10.34,7.08,5.03,12.99,11.09,18.21,17.85,5.32,6.91,10.49,13.97,14.78,21.61,1.92,3.43,4.2,6.66,6.04,10.12,2,3.76,4.02,7.51,6.18,11.18,4.8,8.11,9.9,16.05,14.38,24.32,2.47,4.57,5,9.12,7.55,13.65,1.79,3.19,3.75,6.29,5.64,9.42.54.9.88,1.48-.74,1.56-9.36.44-18.17-1.56-26.66-5.47-9.62-4.44-16.9-11.65-23.63-19.52-5.65-6.6-10.44-13.85-15.26-21.07-2.15-3.22-4.2-6.51-5.95-9.93-5.08-9.97-11.2-19.33-16.78-29.01-4.19-7.27-7.79-14.87-12.3-21.96-2.66-4.18-5.02-8.51-7.75-13.09Z"/>
    </g>
  </g>
</svg>